<?xml version="1.0" encoding="UTF-8" standalone="no"?>
<svg width="800" height="300" xmlns="http://www.w3.org/2000/svg" xmlns:xlink="http://www.w3.org/1999/xlink">
  <!-- 添加白色背景 -->
  <rect width="800" height="300" fill="white" />
  
  <style>
    .title {
      font-family: Arial, sans-serif;
      font-size: 20px;
      font-weight: bold;
      text-anchor: middle;
    }
    .field-box {
      fill: #bbdefb;
      stroke: #1565c0;
      stroke-width: 2px;
    }
    .field-name {
      font-family: Arial, sans-serif;
      font-size: 14px;
      font-weight: bold;
      text-anchor: middle;
      fill: #1565c0;
    }
    .field-desc {
      font-family: Arial, sans-serif;
      font-size: 12px;
      text-anchor: middle;
    }
    .detail-text {
      font-family: Arial, sans-serif;
      font-size: 12px;
      text-anchor: start;
    }
    .arrow {
      stroke: #455a64;
      stroke-width: 1.5px;
      fill: none;
    }
    .bits {
      font-family: Arial, sans-serif;
      font-size: 10px;
      text-anchor: middle;
      fill: #455a64;
    }
  </style>

  <!-- 标题 -->
  <text x="400" y="30" class="title">KCP报文段结构</text>

  <!-- 报文段字段 -->
  <!-- 第一行字段 -->
  <rect x="100" y="60" width="80" height="60" class="field-box" />
  <text x="140" y="85" class="field-name">CONV</text>
  <text x="140" y="105" class="field-desc">会话标识</text>
  
  <rect x="180" y="60" width="70" height="60" class="field-box" />
  <text x="215" y="85" class="field-name">CMD</text>
  <text x="215" y="105" class="field-desc">命令类型</text>
  
  <rect x="250" y="60" width="70" height="60" class="field-box" />
  <text x="285" y="85" class="field-name">FRG</text>
  <text x="285" y="105" class="field-desc">分片序号</text>
  
  <rect x="320" y="60" width="70" height="60" class="field-box" />
  <text x="355" y="85" class="field-name">WND</text>
  <text x="355" y="105" class="field-desc">窗口大小</text>
  
  <!-- 第二行字段 -->
  <rect x="390" y="60" width="70" height="60" class="field-box" />
  <text x="425" y="85" class="field-name">TS</text>
  <text x="425" y="105" class="field-desc">时间戳</text>
  
  <rect x="460" y="60" width="70" height="60" class="field-box" />
  <text x="495" y="85" class="field-name">SN</text>
  <text x="495" y="105" class="field-desc">序号</text>
  
  <rect x="530" y="60" width="70" height="60" class="field-box" />
  <text x="565" y="85" class="field-name">UNA</text>
  <text x="565" y="105" class="field-desc">确认号</text>
  
  <rect x="600" y="60" width="70" height="60" class="field-box" />
  <text x="635" y="85" class="field-name">LEN</text>
  <text x="635" y="105" class="field-desc">长度</text>
  
  <!-- 数据段 -->
  <rect x="670" y="60" width="100" height="60" class="field-box" rx="5" />
  <text x="720" y="85" class="field-name">DATA</text>
  <text x="720" y="105" class="field-desc">数据内容</text>
  
  <!-- 位宽标记 -->
  <text x="140" y="135" class="bits">32位</text>
  <text x="215" y="135" class="bits">8位</text>
  <text x="285" y="135" class="bits">8位</text>
  <text x="355" y="135" class="bits">16位</text>
  <text x="425" y="135" class="bits">32位</text>
  <text x="495" y="135" class="bits">32位</text>
  <text x="565" y="135" class="bits">32位</text>
  <text x="635" y="135" class="bits">32位</text>
  <text x="720" y="135" class="bits">可变长度</text>
  
  <!-- 左侧字段说明 -->
  <text x="150" y="170" class="title" font-size="14">字段说明</text>
  <text x="120" y="190" class="detail-text">• 会话标识 (CONV): 标识不同的KCP连接</text>
  <text x="120" y="210" class="detail-text">• 命令类型 (CMD): 数据包、确认包、窗口探测等</text>
  <text x="120" y="230" class="detail-text">• 分片序号 (FRG): 大包分片时的序号，用于重组</text>
  <text x="120" y="250" class="detail-text">• 窗口大小 (WND): 接收方可用窗口大小</text>
  <text x="120" y="270" class="detail-text">• 时间戳 (TS): 用于计算RTT</text>
  
  <!-- 右侧字段说明 -->
  <text x="450" y="190" class="detail-text">• 序号 (SN): 数据包的序列号</text>
  <text x="450" y="210" class="detail-text">• 确认号 (UNA): 已接收到的最大序列号</text>
  <text x="450" y="230" class="detail-text">• 长度 (LEN): DATA字段的长度</text>
  <text x="450" y="250" class="detail-text">• 数据内容 (DATA): 实际传输的用户数据</text>
  
  <!-- 报文段总大小说明 -->
  <path d="M 100,150 H 770" class="arrow" stroke-dasharray="5,5" />
  <path d="M 100,150 V 155 M 670,150 V 155" class="arrow" />
  <text x="385" y="165" class="bits">KCP报文段头部固定为24字节</text>
  <path d="M 670,150 V 155 M 770,150 V 155" class="arrow" />
  <text x="720" y="165" class="bits">数据字段长度可变</text>
</svg> 