<?xml version="1.0" encoding="UTF-8" standalone="no"?>
<svg width="600" height="500" xmlns="http://www.w3.org/2000/svg">
  <!-- 背景 -->
  <rect width="600" height="500" fill="#f9f9f9" />
  
  <!-- 标题 -->
  <text x="300" y="30" font-family="Arial" font-size="20" font-weight="bold" text-anchor="middle" fill="#000">KCP核心数据结构</text>
  
  <!-- KCP报文段结构 -->
  <rect x="50" y="50" width="500" height="30" rx="0" fill="#90caf9" stroke="#1565c0" stroke-width="2" />
  <text x="300" y="70" font-family="Arial" font-size="16" font-weight="bold" text-anchor="middle" fill="#000">KCP报文段结构</text>
  
  <!-- 报文段字段 -->
  <rect x="50" y="80" width="500" height="150" rx="0" fill="#e3f2fd" stroke="#1565c0" stroke-width="2" />
  
  <line x1="50" y1="100" x2="550" y2="100" stroke="#1565c0" stroke-width="1" />
  <text x="60" y="95" font-family="Arial" font-size="12" fill="#000">链表节点引用</text>
  
  <line x1="50" y1="120" x2="550" y2="120" stroke="#1565c0" stroke-width="1" />
  <text x="60" y="115" font-family="Arial" font-size="12" fill="#000">会话标识</text>
  <text x="250" y="115" font-family="Arial" font-size="12" fill="#000">命令类型</text>
  <text x="450" y="115" font-family="Arial" font-size="12" fill="#000">分片序号</text>
  
  <line x1="50" y1="140" x2="550" y2="140" stroke="#1565c0" stroke-width="1" />
  <text x="60" y="135" font-family="Arial" font-size="12" fill="#000">窗口大小</text>
  <text x="250" y="135" font-family="Arial" font-size="12" fill="#000">时间戳</text>
  <text x="450" y="135" font-family="Arial" font-size="12" fill="#000">序列号</text>
  
  <line x1="50" y1="160" x2="550" y2="160" stroke="#1565c0" stroke-width="1" />
  <text x="60" y="155" font-family="Arial" font-size="12" fill="#000">确认号</text>
  <text x="250" y="155" font-family="Arial" font-size="12" fill="#000">数据长度</text>
  <text x="450" y="155" font-family="Arial" font-size="12" fill="#000">重发时间戳</text>
  
  <line x1="50" y1="180" x2="550" y2="180" stroke="#1565c0" stroke-width="1" />
  <text x="60" y="175" font-family="Arial" font-size="12" fill="#000">超时重传时间</text>
  <text x="250" y="175" font-family="Arial" font-size="12" fill="#000">快速重传计数</text>
  <text x="450" y="175" font-family="Arial" font-size="12" fill="#000">发送次数</text>
  
  <text x="60" y="195" font-family="Arial" font-size="12" fill="#000">数据内容</text>

  <!-- KCP控制块结构 -->
  <rect x="50" y="250" width="500" height="30" rx="0" fill="#a5d6a7" stroke="#2e7d32" stroke-width="2" />
  <text x="300" y="270" font-family="Arial" font-size="16" font-weight="bold" text-anchor="middle" fill="#000">KCP控制块结构</text>
  
  <!-- 控制块字段 -->
  <rect x="50" y="280" width="500" height="200" rx="0" fill="#e8f5e9" stroke="#2e7d32" stroke-width="2" />
  
  <!-- 基本参数 -->
  <rect x="60" y="290" width="220" height="80" rx="5" fill="#c8e6c9" stroke="#2e7d32" stroke-width="1" />
  <text x="170" y="310" font-family="Arial" font-size="14" font-weight="bold" text-anchor="middle" fill="#000">基本参数</text>
  <text x="70" y="330" font-family="Arial" font-size="12" fill="#000">• 会话标识、报文单元大小、状态</text>
  <text x="70" y="350" font-family="Arial" font-size="12" fill="#000">• 已确认序号、发送序号、接收序号</text>
  <text x="70" y="370" font-family="Arial" font-size="12" fill="#000">• 用户数据指针、缓冲区、快速重传</text>
  
  <!-- 窗口参数 -->
  <rect x="320" y="290" width="220" height="80" rx="5" fill="#c8e6c9" stroke="#2e7d32" stroke-width="1" />
  <text x="430" y="310" font-family="Arial" font-size="14" font-weight="bold" text-anchor="middle" fill="#000">窗口参数</text>
  <text x="330" y="330" font-family="Arial" font-size="12" fill="#000">• 发送窗口、接收窗口</text>
  <text x="330" y="350" font-family="Arial" font-size="12" fill="#000">• 远端窗口、拥塞窗口、探测标志</text>
  <text x="330" y="370" font-family="Arial" font-size="12" fill="#000">• 探测时间戳、探测等待时间</text>
  
  <!-- 队列与缓冲区 -->
  <rect x="60" y="390" width="220" height="80" rx="5" fill="#c8e6c9" stroke="#2e7d32" stroke-width="1" />
  <text x="170" y="410" font-family="Arial" font-size="14" font-weight="bold" text-anchor="middle" fill="#000">队列与缓冲区</text>
  <text x="70" y="430" font-family="Arial" font-size="12" fill="#000">• 发送队列、接收队列</text>
  <text x="70" y="450" font-family="Arial" font-size="12" fill="#000">• 发送缓冲区、接收缓冲区</text>
  <text x="70" y="470" font-family="Arial" font-size="12" fill="#000">• 确认列表、确认数量、确认块大小</text>
  
  <!-- 重传与拥塞 -->
  <rect x="320" y="390" width="220" height="80" rx="5" fill="#c8e6c9" stroke="#2e7d32" stroke-width="1" />
  <text x="430" y="410" font-family="Arial" font-size="14" font-weight="bold" text-anchor="middle" fill="#000">重传与拥塞</text>
  <text x="330" y="430" font-family="Arial" font-size="12" fill="#000">• RTT变化值、平滑RTT</text>
  <text x="330" y="450" font-family="Arial" font-size="12" fill="#000">• 重传超时时间、最小重传超时</text>
  <text x="330" y="470" font-family="Arial" font-size="12" fill="#000">• 拥塞控制开关、链路超时检测</text>
</svg> 