<?xml version="1.0" encoding="UTF-8" standalone="no"?>
<svg width="600" height="400" xmlns="http://www.w3.org/2000/svg">
  <!-- 背景 -->
  <rect width="600" height="400" fill="white" />
  
  <!-- 标题 -->
  <text x="300" y="30" font-family="Arial" font-size="20" font-weight="bold" text-anchor="middle" fill="#000">KCP快速重传机制</text>
  
  <!-- 发送方和接收方 -->
  <rect x="50" y="60" width="120" height="60" rx="10" fill="#90caf9" stroke="#1565c0" stroke-width="2" />
  <text x="110" y="95" font-family="Arial" font-size="16" font-weight="bold" text-anchor="middle" fill="#000">发送方</text>
  
  <rect x="430" y="60" width="120" height="60" rx="10" fill="#a5d6a7" stroke="#2e7d32" stroke-width="2" />
  <text x="490" y="95" font-family="Arial" font-size="16" font-weight="bold" text-anchor="middle" fill="#000">接收方</text>
  
  <!-- 时间线 -->
  <line x1="110" y1="120" x2="110" y2="380" stroke="#1565c0" stroke-width="2" stroke-dasharray="5,5" />
  <line x1="490" y1="120" x2="490" y2="380" stroke="#2e7d32" stroke-width="2" stroke-dasharray="5,5" />
  
  <!-- 包发送示意 1 -->
  <rect x="70" y="140" width="80" height="30" rx="5" fill="#bbdefb" stroke="#1565c0" stroke-width="1" />
  <text x="110" y="160" font-family="Arial" font-size="14" text-anchor="middle" fill="#000">数据包 1</text>
  <line x1="150" y1="155" x2="470" y2="170" stroke="#000" stroke-width="1" marker-end="url(#arrowhead)" />
  
  <!-- 包发送示意 2 -->
  <rect x="70" y="180" width="80" height="30" rx="5" fill="#bbdefb" stroke="#1565c0" stroke-width="1" />
  <text x="110" y="200" font-family="Arial" font-size="14" text-anchor="middle" fill="#000">数据包 2</text>
  <line x1="150" y1="195" x2="470" y2="210" stroke="#000" stroke-width="1" marker-end="url(#arrowhead)" />
  
  <!-- 包发送示意 3 (丢失的包) -->
  <rect x="70" y="220" width="80" height="30" rx="5" fill="#ffcdd2" stroke="#c62828" stroke-width="1" />
  <text x="110" y="240" font-family="Arial" font-size="14" text-anchor="middle" fill="#000">数据包 3</text>
  <line x1="150" y1="235" x2="300" y2="235" stroke="#c62828" stroke-width="1" stroke-dasharray="5,5" />
  <text x="300" y="230" font-family="Arial" font-size="12" fill="#c62828">包丢失</text>
  
  <!-- 包发送示意 4 -->
  <rect x="70" y="260" width="80" height="30" rx="5" fill="#bbdefb" stroke="#1565c0" stroke-width="1" />
  <text x="110" y="280" font-family="Arial" font-size="14" text-anchor="middle" fill="#000">数据包 4</text>
  <line x1="150" y1="275" x2="470" y2="290" stroke="#000" stroke-width="1" marker-end="url(#arrowhead)" />
  
  <!-- 包发送示意 5 -->
  <rect x="70" y="300" width="80" height="30" rx="5" fill="#bbdefb" stroke="#1565c0" stroke-width="1" />
  <text x="110" y="320" font-family="Arial" font-size="14" text-anchor="middle" fill="#000">数据包 5</text>
  <line x1="150" y1="315" x2="470" y2="330" stroke="#000" stroke-width="1" marker-end="url(#arrowhead)" />
  
  <!-- ACK返回示意 -->
  <rect x="450" y="170" width="80" height="20" rx="5" fill="#c8e6c9" stroke="#2e7d32" stroke-width="1" />
  <text x="490" y="185" font-family="Arial" font-size="12" text-anchor="middle" fill="#000">确认包 1</text>
  <line x1="450" y1="180" x2="130" y2="190" stroke="#2e7d32" stroke-width="1" marker-end="url(#arrowhead)" />
  
  <rect x="450" y="210" width="80" height="20" rx="5" fill="#c8e6c9" stroke="#2e7d32" stroke-width="1" />
  <text x="490" y="225" font-family="Arial" font-size="12" text-anchor="middle" fill="#000">确认包 2</text>
  <line x1="450" y1="220" x2="130" y2="230" stroke="#2e7d32" stroke-width="1" marker-end="url(#arrowhead)" />
  
  <rect x="450" y="290" width="80" height="20" rx="5" fill="#c8e6c9" stroke="#2e7d32" stroke-width="1" />
  <text x="490" y="305" font-family="Arial" font-size="12" text-anchor="middle" fill="#000">确认包 4</text>
  <line x1="450" y1="300" x2="130" y2="310" stroke="#2e7d32" stroke-width="1" marker-end="url(#arrowhead)" />
  
  <rect x="450" y="330" width="80" height="20" rx="5" fill="#c8e6c9" stroke="#2e7d32" stroke-width="1" />
  <text x="490" y="345" font-family="Arial" font-size="12" text-anchor="middle" fill="#000">确认包 5</text>
  <line x1="450" y1="340" x2="130" y2="350" stroke="#2e7d32" stroke-width="1" marker-end="url(#arrowhead)" />
  
  <!-- 快速重传示意 -->
  <rect x="70" y="350" width="80" height="30" rx="5" fill="#ffe0b2" stroke="#ef6c00" stroke-width="2" />
  <text x="110" y="370" font-family="Arial" font-size="14" text-anchor="middle" fill="#000">包3重传</text>
  <line x1="150" y1="365" x2="470" y2="375" stroke="#ef6c00" stroke-width="2" marker-end="url(#arrowhead)" />
  
  <!-- 解释文本 -->
  <rect x="180" y="340" width="240" height="60" rx="5" fill="#fff3e0" stroke="#ef6c00" stroke-width="1" />
  <text x="300" y="360" font-family="Arial" font-size="12" font-weight="bold" text-anchor="middle" fill="#000">快速重传触发:</text>
  <text x="300" y="380" font-family="Arial" font-size="12" text-anchor="middle" fill="#000">当收到多个比数据包3序号更大的确认包时，</text>
  <text x="300" y="395" font-family="Arial" font-size="12" text-anchor="middle" fill="#000">不等待超时立即重传数据包3</text>
  
  <!-- 箭头标记定义 -->
  <defs>
    <marker id="arrowhead" markerWidth="10" markerHeight="7" refX="9" refY="3.5" orient="auto">
      <polygon points="0 0, 10 3.5, 0 7" fill="#000" />
    </marker>
  </defs>
</svg> 