<?xml version="1.0" encoding="UTF-8" standalone="no"?>
<svg width="600" height="500" xmlns="http://www.w3.org/2000/svg">
  <!-- 背景 -->
  <rect width="600" height="500" fill="#f9f9f9" />
  
  <!-- 标题 -->
  <text x="300" y="30" font-family="Arial" font-size="20" font-weight="bold" text-anchor="middle" fill="#000">KCP数据发送流程</text>
  
  <!-- 应用层 -->
  <rect x="50" y="60" width="500" height="50" rx="5" fill="#a5d6a7" stroke="#2e7d32" stroke-width="2" />
  <text x="300" y="90" font-family="Arial" font-size="16" font-weight="bold" text-anchor="middle" fill="#000">应用层</text>
  
  <!-- 发送数据调用 -->
  <rect x="100" y="130" width="160" height="40" rx="5" fill="#c8e6c9" stroke="#2e7d32" stroke-width="1" />
  <text x="180" y="155" font-family="Arial" font-size="14" text-anchor="middle" fill="#000">调用 ikcp_send()</text>
  
  <!-- 箭头 -->
  <line x1="180" y1="170" x2="180" y2="200" stroke="#000" stroke-width="1.5" marker-end="url(#arrowhead)" />
  
  <!-- 数据分片 -->
  <rect x="100" y="200" width="160" height="40" rx="5" fill="#bbdefb" stroke="#1565c0" stroke-width="1" />
  <text x="180" y="225" font-family="Arial" font-size="14" text-anchor="middle" fill="#000">数据分片</text>
  
  <!-- 箭头 -->
  <line x1="180" y1="240" x2="180" y2="270" stroke="#000" stroke-width="1.5" marker-end="url(#arrowhead)" />
  
  <!-- 加入发送队列 -->
  <rect x="100" y="270" width="160" height="40" rx="5" fill="#bbdefb" stroke="#1565c0" stroke-width="1" />
  <text x="180" y="295" font-family="Arial" font-size="14" text-anchor="middle" fill="#000">加入发送队列</text>
  
  <!-- 定时更新 -->
  <rect x="340" y="130" width="160" height="40" rx="5" fill="#c8e6c9" stroke="#2e7d32" stroke-width="1" />
  <text x="420" y="155" font-family="Arial" font-size="14" text-anchor="middle" fill="#000">调用 ikcp_update()</text>
  
  <!-- 箭头 -->
  <line x1="420" y1="170" x2="420" y2="200" stroke="#000" stroke-width="1.5" marker-end="url(#arrowhead)" />
  
  <!-- 检查是否需要刷新 -->
  <rect x="340" y="200" width="160" height="40" rx="5" fill="#e1bee7" stroke="#7b1fa2" stroke-width="1" />
  <text x="420" y="225" font-family="Arial" font-size="14" text-anchor="middle" fill="#000">检查是否需要刷新</text>
  
  <!-- 箭头 -->
  <line x1="420" y1="240" x2="420" y2="270" stroke="#000" stroke-width="1.5" marker-end="url(#arrowhead)" />
  
  <!-- 条件判断 -->
  <polygon points="420,270 445,295 420,320 395,295" fill="#ffecb3" stroke="#ff8f00" stroke-width="1.5" />
  <text x="420" y="297" font-family="Arial" font-size="12" text-anchor="middle" fill="#000">需要刷新?</text>
  
  <!-- 条件分支 - 是 -->
  <line x1="420" y1="320" x2="420" y2="350" stroke="#000" stroke-width="1.5" marker-end="url(#arrowhead)" />
  <text x="435" y="335" font-family="Arial" font-size="12" text-anchor="start" fill="#000">是</text>
  
  <!-- 条件分支 - 否 -->
  <line x1="395" y1="295" x2="350" y2="295" stroke="#000" stroke-width="1.5" marker-end="url(#arrowhead)" />
  <text x="370" y="285" font-family="Arial" font-size="12" text-anchor="middle" fill="#000">否</text>
  
  <!-- 返回 -->
  <rect x="250" y="275" width="100" height="40" rx="5" fill="#f5f5f5" stroke="#9e9e9e" stroke-width="1" />
  <text x="300" y="300" font-family="Arial" font-size="14" text-anchor="middle" fill="#000">返回</text>
  
  <!-- 调用 ikcp_flush -->
  <rect x="340" y="350" width="160" height="40" rx="5" fill="#bbdefb" stroke="#1565c0" stroke-width="1" />
  <text x="420" y="375" font-family="Arial" font-size="14" text-anchor="middle" fill="#000">调用 ikcp_flush()</text>
  
  <!-- KCP协议层 -->
  <rect x="50" y="320" width="500" height="160" rx="5" fill="#e3f2fd" stroke="#1565c0" stroke-width="2" />
  <text x="80" y="340" font-family="Arial" font-size="16" font-weight="bold" text-anchor="start" fill="#000">KCP协议层</text>
  
  <!-- 箭头 -->
  <line x1="420" y1="390" x2="420" y2="420" stroke="#000" stroke-width="1.5" marker-end="url(#arrowhead)" />
  
  <!-- 发送过程 -->
  <rect x="80" y="420" width="120" height="40" rx="5" fill="#bbdefb" stroke="#1565c0" stroke-width="1" />
  <text x="140" y="445" font-family="Arial" font-size="14" text-anchor="middle" fill="#000">移入发送缓冲区</text>
  
  <rect x="210" y="420" width="120" height="40" rx="5" fill="#bbdefb" stroke="#1565c0" stroke-width="1" />
  <text x="270" y="445" font-family="Arial" font-size="14" text-anchor="middle" fill="#000">发送ACK</text>
  
  <rect x="340" y="420" width="120" height="40" rx="5" fill="#bbdefb" stroke="#1565c0" stroke-width="1" />
  <text x="400" y="445" font-family="Arial" font-size="14" text-anchor="middle" fill="#000">发送数据包</text>
  
  <!-- UDP层 -->
  <rect x="50" y="490" width="500" height="50" rx="5" fill="#ffcc80" stroke="#ef6c00" stroke-width="2" />
  <text x="300" y="520" font-family="Arial" font-size="16" font-weight="bold" text-anchor="middle" fill="#000">UDP (底层传输)</text>
  
  <!-- 连接线 -->
  <line x1="190" y1="320" x2="180" y2="310" stroke="#000" stroke-width="1.5" marker-end="url(#arrowhead)" />
  <line x1="140" y1="460" x2="140" y2="490" stroke="#000" stroke-width="1.5" marker-end="url(#arrowhead)" />
  <line x1="270" y1="460" x2="270" y2="490" stroke="#000" stroke-width="1.5" marker-end="url(#arrowhead)" />
  <line x1="400" y1="460" x2="400" y2="490" stroke="#000" stroke-width="1.5" marker-end="url(#arrowhead)" />
  
  <!-- 箭头标记定义 -->
  <defs>
    <marker id="arrowhead" markerWidth="10" markerHeight="7" refX="9" refY="3.5" orient="auto">
      <polygon points="0 0, 10 3.5, 0 7" fill="#000" />
    </marker>
  </defs>
</svg> 