<?xml version="1.0" encoding="UTF-8" standalone="no"?>
<svg width="600" height="600" xmlns="http://www.w3.org/2000/svg">
  <!-- 背景 -->
  <rect width="600" height="600" fill="#f9f9f9" />
  
  <!-- 标题 -->
  <text x="300" y="30" font-family="Arial" font-size="20" font-weight="bold" text-anchor="middle" fill="#000">KCP数据接收流程</text>
  
  <!-- UDP层 -->
  <rect x="50" y="60" width="500" height="50" rx="5" fill="#ffcc80" stroke="#ef6c00" stroke-width="2" />
  <text x="300" y="90" font-family="Arial" font-size="16" font-weight="bold" text-anchor="middle" fill="#000">UDP (底层传输)</text>
  
  <!-- 接收数据 -->
  <line x1="300" y1="110" x2="300" y2="140" stroke="#000" stroke-width="1.5" marker-end="url(#arrowhead)" />
  <rect x="200" y="140" width="200" height="40" rx="5" fill="#ffcc80" stroke="#ef6c00" stroke-width="1" />
  <text x="300" y="165" font-family="Arial" font-size="14" text-anchor="middle" fill="#000">收到UDP数据包</text>
  
  <!-- KCP协议层 -->
  <rect x="50" y="200" width="500" height="300" rx="5" fill="#e3f2fd" stroke="#1565c0" stroke-width="2" />
  <text x="80" y="220" font-family="Arial" font-size="16" font-weight="bold" text-anchor="start" fill="#000">KCP协议层</text>
  
  <!-- 调用ikcp_input -->
  <line x1="300" y1="180" x2="300" y2="240" stroke="#000" stroke-width="1.5" marker-end="url(#arrowhead)" />
  <rect x="200" y="240" width="200" height="40" rx="5" fill="#bbdefb" stroke="#1565c0" stroke-width="1" />
  <text x="300" y="265" font-family="Arial" font-size="14" text-anchor="middle" fill="#000">调用 ikcp_input()</text>
  
  <!-- 解析数据包类型 -->
  <line x1="300" y1="280" x2="300" y2="310" stroke="#000" stroke-width="1.5" marker-end="url(#arrowhead)" />
  <rect x="200" y="310" width="200" height="40" rx="5" fill="#bbdefb" stroke="#1565c0" stroke-width="1" />
  <text x="300" y="335" font-family="Arial" font-size="14" text-anchor="middle" fill="#000">解析数据包类型</text>
  
  <!-- 判断类型分支 -->
  <line x1="300" y1="350" x2="300" y2="380" stroke="#000" stroke-width="1.5" marker-end="url(#arrowhead)" />
  <polygon points="300,380 320,400 300,420 280,400" fill="#ffecb3" stroke="#ff8f00" stroke-width="1.5" />
  <text x="300" y="405" font-family="Arial" font-size="12" text-anchor="middle" fill="#000">包类型?</text>
  
  <!-- 数据包处理 -->
  <line x1="280" y1="400" x2="150" y2="400" stroke="#000" stroke-width="1.5" marker-end="url(#arrowhead)" />
  <text x="200" y="390" font-family="Arial" font-size="12" text-anchor="middle" fill="#000">PUSH</text>
  <rect x="70" y="420" width="160" height="70" rx="5" fill="#bbdefb" stroke="#1565c0" stroke-width="1" />
  <text x="150" y="440" font-family="Arial" font-size="12" text-anchor="middle" fill="#000">1. 加入接收缓冲区</text>
  <text x="150" y="460" font-family="Arial" font-size="12" text-anchor="middle" fill="#000">2. 发送ACK</text>
  <text x="150" y="480" font-family="Arial" font-size="12" text-anchor="middle" fill="#000">3. 移入接收队列</text>
  
  <!-- ACK包处理 -->
  <line x1="300" y1="420" x2="300" y2="450" stroke="#000" stroke-width="1.5" marker-end="url(#arrowhead)" />
  <text x="300" y="440" font-family="Arial" font-size="12" text-anchor="middle" fill="#000">ACK</text>
  <rect x="220" y="450" width="160" height="70" rx="5" fill="#bbdefb" stroke="#1565c0" stroke-width="1" />
  <text x="300" y="470" font-family="Arial" font-size="12" text-anchor="middle" fill="#000">1. 标记确认</text>
  <text x="300" y="490" font-family="Arial" font-size="12" text-anchor="middle" fill="#000">2. 更新RTT</text>
  <text x="300" y="510" font-family="Arial" font-size="12" text-anchor="middle" fill="#000">3. 从发送缓冲区移除</text>
  
  <!-- 窗口包处理 -->
  <line x1="320" y1="400" x2="450" y2="400" stroke="#000" stroke-width="1.5" marker-end="url(#arrowhead)" />
  <text x="400" y="390" font-family="Arial" font-size="12" text-anchor="middle" fill="#000">WINS/WASK</text>
  <rect x="370" y="420" width="160" height="40" rx="5" fill="#bbdefb" stroke="#1565c0" stroke-width="1" />
  <text x="450" y="445" font-family="Arial" font-size="12" text-anchor="middle" fill="#000">更新远端窗口大小</text>
  
  <!-- 应用层 -->
  <rect x="50" y="520" width="500" height="70" rx="5" fill="#a5d6a7" stroke="#2e7d32" stroke-width="2" />
  <text x="80" y="540" font-family="Arial" font-size="16" font-weight="bold" text-anchor="start" fill="#000">应用层</text>
  
  <!-- 调用ikcp_recv -->
  <rect x="100" y="550" width="160" height="30" rx="5" fill="#c8e6c9" stroke="#2e7d32" stroke-width="1" />
  <text x="180" y="570" font-family="Arial" font-size="14" text-anchor="middle" fill="#000">调用 ikcp_recv()</text>
  
  <!-- 返回 -->
  <rect x="340" y="550" width="160" height="30" rx="5" fill="#c8e6c9" stroke="#2e7d32" stroke-width="1" />
  <text x="420" y="570" font-family="Arial" font-size="14" text-anchor="middle" fill="#000">返回完整数据</text>
  
  <!-- 连接应用层和KCP层 -->
  <line x1="150" y1="490" x2="150" y2="550" stroke="#000" stroke-width="1.5" marker-end="url(#arrowhead)" />
  <line x1="180" y1="580" x2="340" y2="580" stroke="#000" stroke-width="1.5" marker-end="url(#arrowhead)" />
  <text x="260" y="570" font-family="Arial" font-size="12" text-anchor="middle" fill="#000">重组分片</text>
  
  <!-- 箭头标记定义 -->
  <defs>
    <marker id="arrowhead" markerWidth="10" markerHeight="7" refX="9" refY="3.5" orient="auto">
      <polygon points="0 0, 10 3.5, 0 7" fill="#000" />
    </marker>
  </defs>
</svg> 