<?xml version="1.0" encoding="UTF-8" standalone="no"?>
<svg width="650" height="370" xmlns="http://www.w3.org/2000/svg">
  <!-- 增加了宽度，使内容有更多空间 -->
  
  <!-- 背景 -->
  <rect width="650" height="370" fill="#f9f9f9" />
  
  <!-- 标题 -->
  <text x="325" y="35" font-family="Arial" font-size="20" font-weight="bold" text-anchor="middle" fill="#000">KCP数据分片与重组机制</text>
  
  <!-- 数据分片过程 -->
  <rect x="50" y="55" width="550" height="145" rx="5" fill="#e8f5e9" stroke="#2e7d32" stroke-width="2" />
  <text x="325" y="80" font-family="Arial" font-size="16" font-weight="bold" text-anchor="middle" fill="#000">发送端: 数据分片过程</text>
  
  <!-- 原始数据 -->
  <rect x="70" y="95" width="510" height="35" rx="3" fill="#a5d6a7" stroke="#2e7d32" stroke-width="1" />
  <text x="325" y="117" font-family="Arial" font-size="14" text-anchor="middle" fill="#000">应用层数据 (大小超过MSS, 需要分片)</text>
  
  <!-- 箭头 -->
  <path d="M325,130 L325,150" stroke="#000" stroke-width="2" marker-end="url(#arrowhead)" />
  
  <!-- 分片后的数据 -->
  <rect x="70" y="155" width="110" height="35" rx="3" fill="#b3e5fc" stroke="#0277bd" stroke-width="1" />
  <text x="125" y="176" font-family="Arial" font-size="14" text-anchor="middle" fill="#000">分片1</text>
  <text x="125" y="190" font-family="Arial" font-size="10" text-anchor="middle" fill="#000">frg=2</text>
  
  <rect x="190" y="155" width="110" height="35" rx="3" fill="#b3e5fc" stroke="#0277bd" stroke-width="1" />
  <text x="245" y="176" font-family="Arial" font-size="14" text-anchor="middle" fill="#000">分片2</text>
  <text x="245" y="190" font-family="Arial" font-size="10" text-anchor="middle" fill="#000">frg=1</text>
  
  <rect x="310" y="155" width="110" height="35" rx="3" fill="#b3e5fc" stroke="#0277bd" stroke-width="1" />
  <text x="365" y="176" font-family="Arial" font-size="14" text-anchor="middle" fill="#000">分片3</text>
  <text x="365" y="190" font-family="Arial" font-size="10" text-anchor="middle" fill="#000">frg=0</text>
  
  <rect x="430" y="155" width="150" height="35" rx="3" fill="#f5f5f5" stroke="#9e9e9e" stroke-width="1" stroke-dasharray="3,3" />
  <text x="505" y="176" font-family="Arial" font-size="14" text-anchor="middle" fill="#000">可能有更多分片</text>
  
  <!-- 数据重组过程 -->
  <rect x="50" y="210" width="550" height="145" rx="5" fill="#e3f2fd" stroke="#1565c0" stroke-width="2" />
  <text x="325" y="235" font-family="Arial" font-size="16" font-weight="bold" text-anchor="middle" fill="#000">接收端: 数据重组过程</text>
  
  <!-- 接收到的分片 (可能乱序) -->
  <rect x="310" y="250" width="110" height="35" rx="3" fill="#b3e5fc" stroke="#0277bd" stroke-width="1" />
  <text x="365" y="271" font-family="Arial" font-size="14" text-anchor="middle" fill="#000">分片3</text>
  <text x="365" y="285" font-family="Arial" font-size="10" text-anchor="middle" fill="#000">frg=0</text>
  
  <rect x="70" y="250" width="110" height="35" rx="3" fill="#b3e5fc" stroke="#0277bd" stroke-width="1" />
  <text x="125" y="271" font-family="Arial" font-size="14" text-anchor="middle" fill="#000">分片1</text>
  <text x="125" y="285" font-family="Arial" font-size="10" text-anchor="middle" fill="#000">frg=2</text>
  
  <rect x="190" y="250" width="110" height="35" rx="3" fill="#b3e5fc" stroke="#0277bd" stroke-width="1" />
  <text x="245" y="271" font-family="Arial" font-size="14" text-anchor="middle" fill="#000">分片2</text>
  <text x="245" y="285" font-family="Arial" font-size="10" text-anchor="middle" fill="#000">frg=1</text>
  
  <!-- 箭头 -->
  <path d="M325,285 L325,305" stroke="#000" stroke-width="2" marker-end="url(#arrowhead)" />
  
  <!-- 重组后的数据 -->
  <rect x="70" y="310" width="510" height="35" rx="3" fill="#a5d6a7" stroke="#2e7d32" stroke-width="1" />
  <text x="325" y="332" font-family="Arial" font-size="14" text-anchor="middle" fill="#000">重组后的完整数据 (按frg值从大到小排序)</text>
  
  <!-- 箭头标记定义 -->
  <defs>
    <marker id="arrowhead" markerWidth="10" markerHeight="7" refX="9" refY="3.5" orient="auto">
      <polygon points="0 0, 10 3.5, 0 7" fill="#000" />
    </marker>
  </defs>
</svg> 